<?xml version="1.0" encoding="UTF-8"?>
<svg id="Layer_1" data-name="Layer 1" xmlns="http://www.w3.org/2000/svg" viewBox="0 0 329.93 329.93">
  <defs>
    <style>
      .cls-1 {
        fill-rule: evenodd;
      }
    </style>
  </defs>
  <path class="cls-1" d="m243.86,28.69c0-15.84-12.85-28.69-28.69-28.69h-100.41c-15.84,0-28.69,12.85-28.69,28.69v100.41c0,15.84,12.85,28.69,28.69,28.69h100.41c15.84,0,28.69-12.85,28.69-28.69V28.69Zm86.07,172.14c0-15.84-12.85-28.69-28.69-28.69h-100.41c-15.84,0-28.69,12.85-28.69,28.69v100.41c0,15.84,12.85,28.69,28.69,28.69h100.41c15.84,0,28.69-12.85,28.69-28.69v-100.41Zm-66.44,60.26c-.63,6.97-2.24,11.15-9.31,12.06-15.15,1.98-15.81-10.82-15.46-26.25.47-11.91,3.9-19.48,15.61-17.95,7.19.95,8.62,5.31,9.27,12.44h16.75l.13-.16c-1.89-18-12.37-26.24-27.48-26.75-17.82-.67-31.84,10.46-31.36,39.5.3,19.31,10.29,33.62,29.66,33.62,15.74.06,27.18-7.66,29.06-26.41l-.11-.11s-16.75,0-16.75,0Zm-64.84-146.33l.37-.53-26.65-71.19h-15.09l-26.49,71.19.37.53h17.53l4.73-14.2h22.91l4.79,14.2h17.53Zm-27.08-28.47h-13.38l6.66-20.07,6.73,20.07Zm-13.77,114.54c0-15.84-12.85-28.69-28.69-28.69H28.69c-15.84,0-28.69,12.85-28.69,28.69v100.41c0,15.84,12.85,28.69,28.69,28.69h100.41c15.84,0,28.69-12.85,28.69-28.69v-100.41Zm-77.69,86.07c14.46-.32,25.19-5.92,25.76-20.35.34-8.49-3.51-14.12-9.22-16.7,5.01-3.2,7.98-8.41,7.66-15.56-.63-13.76-11.63-18.53-25.29-19.05-9.04-.11-18.07-.03-27.11-.03v71.69h28.2Zm-11.23-30.01v15.84h11.36c5.81-.29,9.05-3,8.65-8.66-.3-4.85-2.95-6.86-7.83-7.16h-12.18m0-27.41v14.59h9.73c6.05-.34,9.42-2.55,8.68-8.68-.4-3.21-1.89-5.67-9.17-5.91h-9.24"/>
</svg>