<?xml version="1.0" encoding="utf-8"?>
<!-- Generator: Adobe Illustrator 27.5.0, SVG Export Plug-In . SVG Version: 6.00 Build 0)  -->
<svg version="1.1" id="Layer_1" xmlns:v="https://vecta.io/nano"
	 xmlns="http://www.w3.org/2000/svg" xmlns:xlink="http://www.w3.org/1999/xlink" x="0px" y="0px" viewBox="0 0 544.2 544.2"
	 style="enable-background:new 0 0 544.2 544.2;" xml:space="preserve">
<style type="text/css">
	.st0{fill:#4B53E2;}
	.st1{fill-rule:evenodd;clip-rule:evenodd;fill:#FFFFFF;}
</style>
<path class="st0" d="M272.1,0C2.1,0,0,121.8,0,272.1s2.1,272.1,272.1,272.1s272.1-121.8,272.1-272.1S542.1,0,272.1,0z"/>
<path class="st1" d="M351,135.8c0-15.8-12.9-28.7-28.7-28.7H221.9c-15.8,0-28.7,12.9-28.7,28.7v100.4c0,15.8,12.9,28.7,28.7,28.7
	h100.4c15.8,0,28.7-12.9,28.7-28.7V135.8z M437.1,308c0-15.8-12.9-28.7-28.7-28.7H308c-15.8,0-28.7,12.9-28.7,28.7v100.4
	c0,15.8,12.9,28.7,28.7,28.7h100.4c15.8,0,28.7-12.9,28.7-28.7V308z M370.6,368.2c-0.6,7-2.2,11.1-9.3,12.1
	c-15.1,2-15.8-10.8-15.5-26.3c0.5-11.9,3.9-19.5,15.6-17.9c7.2,0.9,8.6,5.3,9.3,12.4h16.8l0.1-0.2c-1.9-18-12.4-26.2-27.5-26.8
	c-17.8-0.7-31.8,10.5-31.4,39.5c0.3,19.3,10.3,33.6,29.7,33.6c15.7,0.1,27.2-7.7,29.1-26.4l-0.1-0.1
	C387.4,368.2,370.6,368.2,370.6,368.2z M305.8,221.9l0.4-0.5l-26.7-71.2h-15.1l-26.5,71.2l0.4,0.5h17.5l4.7-14.2h22.9l4.8,14.2
	H305.8z M278.7,193.4h-13.4l6.7-20.1L278.7,193.4z M264.9,308c0-15.8-12.9-28.7-28.7-28.7H135.8c-15.8,0-28.7,12.9-28.7,28.7v100.4
	c0,15.8,12.9,28.7,28.7,28.7h100.4c15.8,0,28.7-12.9,28.7-28.7V308z M187.2,394c14.5-0.3,25.2-5.9,25.8-20.4
	c0.3-8.5-3.5-14.1-9.2-16.7c5-3.2,8-8.4,7.7-15.6c-0.6-13.8-11.6-18.5-25.3-19c-9-0.1-18.1,0-27.1,0V394H187.2z M176,364v15.8
	l11.4,0c5.8-0.3,9.1-3,8.6-8.6c-0.3-4.8-3-6.9-7.8-7.2L176,364 M176,336.6v14.6l9.7,0c6.1-0.3,9.4-2.5,8.7-8.7
	c-0.4-3.2-1.9-5.7-9.2-5.9H176"/>
</svg>
